<?xml version="1.0" standalone="no"?>
<!DOCTYPE svg PUBLIC "-//W3C//DTD SVG 20010904//EN"
 "http://www.w3.org/TR/2001/REC-SVG-20010904/DTD/svg10.dtd">
<svg version="1.0" xmlns="http://www.w3.org/2000/svg"
 width="1080.000000pt" height="1080.000000pt" viewBox="0 0 1080.000000 1080.000000"
 preserveAspectRatio="xMidYMid meet">
<metadata>
Created by potrace 1.14, written by Peter Selinger 2001-2017
</metadata>
<g transform="translate(0.000000,1080.000000) scale(0.100000,-0.100000)"
fill="#000000" stroke="none">
<path d="M7536 10687 c-13 -13 -21 -16 -24 -9 -2 7 -8 12 -14 12 -6 0 -8 -7
-5 -14 4 -10 1 -13 -8 -9 -8 3 -13 8 -10 12 2 4 -2 8 -10 8 -8 0 -12 -4 -9 -9
3 -4 -4 -8 -16 -8 -12 0 -19 -4 -16 -9 11 -17 -29 -6 -42 12 -7 9 -18 17 -24
17 -7 0 -3 -7 8 -15 23 -17 16 -19 -23 -5 -25 9 -26 9 -10 -4 17 -13 16 -14
-7 -12 -13 0 -22 4 -20 8 6 9 -24 4 -33 -7 -4 -4 -2 -5 6 0 10 5 12 4 7 -4 -4
-6 -12 -8 -18 -5 -6 4 -14 1 -18 -6 -5 -8 -9 -7 -13 5 -5 10 -3 14 5 9 7 -4 8
-3 4 4 -5 9 -15 7 -34 -6 -14 -9 -23 -12 -19 -5 5 9 -3 10 -30 7 -29 -4 -34
-3 -23 5 9 7 10 11 3 11 -6 0 -15 -5 -18 -10 -4 -6 -10 -8 -15 -5 -5 3 -11 -3
-13 -12 -4 -17 -5 -17 -6 0 -1 14 -6 17 -23 11 -13 -4 -29 -7 -35 -7 -10 0
-10 -3 0 -15 10 -13 9 -14 -11 -3 -18 10 -23 9 -28 -3 -5 -13 -9 -13 -32 2
-14 9 -23 12 -20 7 4 -6 -2 -16 -13 -23 -15 -10 -19 -10 -17 0 2 7 -3 12 -9
11 -7 -2 -13 2 -13 8 0 5 -5 7 -10 4 -7 -5 -8 -11 -1 -19 7 -8 5 -12 -8 -12
-13 0 -17 7 -15 23 1 13 -2 21 -7 17 -5 -3 -7 -10 -4 -15 10 -14 -7 -11 -26 7
-13 12 -19 12 -25 3 -4 -7 -3 -10 3 -6 6 4 13 -2 16 -13 4 -16 2 -18 -13 -10
-13 7 -20 6 -23 -3 -3 -7 -6 -8 -6 -1 -1 6 -12 9 -26 6 -14 -2 -22 -8 -19 -13
3 -5 1 -9 -3 -9 -5 0 -14 10 -22 22 l-13 21 -20 -24 c-13 -15 -18 -18 -14 -7
3 10 1 20 -5 23 -5 4 -8 1 -7 -7 2 -8 -4 -12 -16 -10 -13 3 -17 -1 -13 -12 4
-10 1 -13 -9 -9 -7 3 -14 9 -14 13 0 4 -7 11 -16 14 -14 5 -15 4 -4 -9 15 -18
0 -20 -19 -2 -11 10 -11 8 -1 -13 12 -22 11 -23 -2 -13 -18 16 -32 5 -17 -13
9 -10 7 -15 -5 -20 -9 -3 -13 -10 -10 -15 3 -5 -2 -6 -10 -3 -9 3 -13 11 -9
18 3 6 -3 2 -15 -8 -12 -11 -25 -16 -29 -13 -3 4 -1 7 7 7 9 0 10 3 1 13 -6 8
-8 17 -4 20 3 4 1 7 -5 7 -5 0 -13 -6 -15 -12 -3 -7 -6 -3 -6 10 -1 13 -5 20
-11 17 -6 -4 -7 -12 -3 -18 3 -7 -4 -3 -16 7 -22 20 -22 20 -16 0 6 -18 6 -18
-8 -2 -16 20 -29 14 -19 -10 5 -14 4 -15 -10 -2 -9 8 -14 18 -11 22 2 4 -3 5
-11 2 -9 -3 -13 -11 -9 -17 3 -5 1 -7 -5 -3 -5 3 -13 0 -16 -6 -3 -7 -3 -2 0
11 5 17 3 21 -7 16 -9 -6 -11 -4 -6 8 3 9 2 19 -3 22 -4 3 -7 -6 -5 -20 1 -14
-2 -25 -7 -25 -5 0 -6 -6 -2 -12 4 -7 3 -10 -1 -5 -5 4 -18 1 -30 -7 -19 -12
-22 -12 -22 0 0 8 2 12 5 9 7 -7 42 14 42 26 0 6 -7 4 -15 -5 -8 -8 -24 -13
-35 -11 -13 3 -18 0 -14 -7 5 -8 1 -9 -9 -5 -14 5 -16 2 -14 -16 2 -12 2 -16
0 -9 -3 6 -8 12 -13 12 -5 0 -10 6 -13 13 -2 6 -2 -1 0 -18 l4 -30 -16 25 c-9
14 -14 17 -11 8 3 -10 0 -20 -6 -24 -7 -4 -8 -3 -4 4 10 16 -6 15 -24 0 -8 -7
-7 -3 3 8 16 20 16 22 2 28 -24 9 -37 -3 -29 -26 5 -17 3 -20 -11 -15 -9 4
-20 7 -23 7 -4 0 0 4 8 10 8 5 12 11 9 15 -8 7 -76 -22 -85 -36 -4 -7 1 -7 17
1 16 9 21 9 13 1 -16 -17 -57 -23 -51 -7 3 7 -1 13 -9 13 -7 0 -11 -4 -9 -8 3
-4 -1 -9 -9 -12 -10 -4 -12 3 -10 26 3 23 1 28 -5 17 -6 -8 -7 -18 -4 -24 3
-5 1 -6 -5 -2 -6 3 -16 -2 -22 -11 -9 -16 -10 -16 -8 -1 2 9 -1 17 -7 17 -5 1
-10 -5 -10 -11 0 -9 -16 -13 -48 -12 -44 1 -60 -8 -19 -11 9 0 17 -5 17 -10 0
-6 -2 -9 -5 -8 -3 1 -14 5 -24 9 -15 6 -17 4 -11 -7 7 -11 5 -11 -10 1 -11 9
-16 10 -11 3 5 -9 0 -13 -14 -13 -14 0 -19 -4 -15 -12 4 -7 -1 -4 -9 6 -9 11
-16 14 -16 8 0 -7 -7 -12 -15 -12 -8 0 -15 -5 -15 -10 0 -7 -6 -7 -18 -1 -11
6 -24 6 -32 1 -8 -5 -19 -5 -25 0 -8 7 -12 5 -12 -5 0 -8 5 -11 11 -8 6 3 7 2
3 -2 -13 -15 -39 -15 -33 0 4 11 0 11 -21 0 -15 -8 -31 -11 -37 -8 -6 4 -4 -2
4 -12 9 -11 10 -16 3 -11 -24 14 -50 14 -50 0 0 -10 4 -11 13 -3 8 7 14 6 20
-2 4 -7 3 -9 -4 -5 -6 3 -13 2 -17 -3 -3 -5 -14 -8 -25 -6 -13 2 -20 -2 -20
-11 0 -8 -4 -13 -8 -10 -5 3 -15 -7 -23 -22 -7 -15 -20 -35 -28 -45 -11 -14
-12 -20 -2 -30 10 -9 11 -8 5 7 -6 15 -4 17 6 11 8 -5 11 -4 6 3 -3 6 -2 13 4
17 13 8 13 -11 0 -35 -6 -11 -18 -17 -28 -15 -10 2 -29 -6 -43 -17 l-24 -19
25 12 c24 12 25 11 8 -8 -21 -23 -24 -37 -5 -27 7 4 9 3 4 -2 -9 -9 -13 -10
-43 -13 -10 0 -14 -7 -11 -15 4 -10 0 -13 -14 -11 -12 3 -17 0 -13 -7 5 -8 1
-9 -10 -5 -10 4 -15 3 -11 -3 3 -6 0 -10 -8 -10 -17 0 -30 -27 -20 -42 4 -7 1
-8 -7 -3 -10 6 -12 4 -7 -8 7 -19 -17 -42 -34 -31 -9 5 -10 2 -6 -9 3 -9 1
-19 -5 -23 -6 -4 -8 -3 -4 4 3 6 1 14 -5 18 -9 5 -10 -2 -6 -27 6 -30 5 -32
-6 -12 l-12 21 -19 -26 c-11 -15 -13 -21 -6 -14 23 20 32 14 15 -11 -8 -13
-12 -26 -9 -30 3 -3 -3 -3 -14 -1 -21 6 -36 -26 -21 -45 6 -8 5 -8 -3 -1 -16
13 -31 13 -23 0 3 -5 -1 -10 -10 -10 -9 0 -19 -9 -22 -20 -3 -11 -9 -17 -14
-14 -5 3 -9 -2 -9 -11 0 -9 5 -13 11 -10 6 4 5 -2 -2 -13 -7 -11 -28 -27 -46
-36 -19 -9 -32 -20 -29 -25 3 -5 -2 -8 -12 -7 -10 0 -16 -6 -16 -16 1 -14 -2
-15 -16 -8 -15 8 -17 6 -13 -10 3 -11 10 -17 17 -13 7 4 6 1 -1 -9 -7 -8 -9
-19 -5 -23 4 -5 1 -5 -6 -1 -7 4 -9 12 -6 18 4 6 2 8 -4 5 -13 -9 -5 -42 14
-58 16 -13 18 -29 4 -29 -6 0 -9 3 -9 8 3 19 -2 23 -16 12 -8 -7 -12 -17 -9
-22 4 -6 0 -14 -7 -19 -8 -4 -14 -14 -14 -21 0 -7 -9 -13 -20 -13 -11 1 -19 7
-17 14 1 7 -2 10 -8 6 -6 -4 -5 -12 2 -25 7 -10 16 -16 22 -13 5 4 6 1 2 -6
-5 -7 -14 -10 -21 -7 -20 7 -36 -14 -24 -36 12 -23 0 -24 -17 0 -12 15 -12 13
-5 -15 8 -26 7 -31 -5 -26 -9 3 -13 12 -10 20 3 8 1 11 -4 8 -15 -9 -12 -26 8
-41 15 -12 15 -13 -8 -9 -24 4 -24 3 -6 -10 10 -8 23 -12 29 -8 6 3 7 1 3 -5
-4 -6 -14 -8 -24 -5 -15 6 -15 5 -3 -10 12 -15 12 -17 -4 -11 -13 5 -16 4 -11
-4 4 -7 2 -12 -4 -12 -6 0 -8 -4 -5 -10 3 -5 0 -7 -8 -4 -8 3 -20 -3 -28 -13
-13 -17 -13 -17 6 -3 13 9 16 10 8 1 -6 -7 -9 -21 -6 -30 4 -14 3 -14 -6 -1
-9 13 -12 13 -23 1 -10 -10 -10 -12 0 -7 7 5 12 1 12 -9 0 -9 4 -14 8 -11 5 3
9 -1 9 -9 0 -10 -5 -11 -18 -4 -12 6 -20 5 -24 -1 -4 -6 -1 -9 6 -8 6 2 14 -3
17 -11 3 -9 0 -11 -8 -6 -10 6 -12 3 -6 -10 5 -15 4 -16 -9 -5 -9 7 -15 9 -14
4 7 -37 -3 -83 -18 -87 -17 -4 -17 -5 0 -6 20 -1 23 -21 3 -21 -8 0 -18 -5
-22 -12 -5 -8 -2 -9 9 -5 10 3 17 2 17 -2 0 -5 -7 -11 -15 -15 -17 -6 -20 -26
-4 -26 5 0 7 5 3 12 -4 7 -3 8 4 4 6 -4 8 -14 5 -23 -5 -12 -3 -14 8 -8 8 5 7
1 -4 -12 -9 -11 -14 -23 -10 -28 5 -4 2 -5 -5 -1 -10 6 -10 11 -2 21 8 10 8
15 -1 21 -7 4 -9 3 -5 -4 3 -6 1 -14 -5 -17 -5 -4 -8 -13 -5 -21 3 -7 0 -19
-7 -26 -7 -7 -12 -25 -12 -40 1 -16 -4 -28 -10 -28 -5 0 -3 -4 5 -9 8 -6 18
-7 24 -4 5 3 6 1 2 -5 -4 -6 -13 -9 -21 -5 -11 4 -13 1 -9 -11 4 -11 -1 -22
-12 -30 -17 -13 -17 -15 -1 -30 20 -21 23 -33 4 -17 -10 8 -14 7 -14 -4 0 -8
3 -15 7 -15 4 0 7 -7 7 -15 0 -13 -4 -12 -21 2 -15 14 -18 14 -8 2 6 -9 9 -19
5 -22 -3 -4 0 -7 8 -7 12 0 12 -2 0 -9 -16 -10 -24 -41 -11 -41 5 0 12 5 15
10 3 6 1 10 -6 10 -7 0 -10 3 -6 6 3 3 11 3 17 -1 8 -5 6 -13 -6 -26 -9 -10
-21 -16 -27 -12 -5 3 -7 1 -3 -5 3 -5 3 -12 -1 -15 -5 -2 -3 -2 4 -1 6 2 14
-3 17 -11 3 -9 0 -12 -10 -8 -10 4 -12 0 -7 -13 4 -12 3 -15 -5 -10 -18 11
-14 0 5 -15 10 -8 14 -9 10 -2 -4 6 -3 14 2 17 5 4 8 -2 6 -11 -1 -10 -10 -17
-20 -16 -12 1 -14 -2 -6 -10 12 -12 15 -31 3 -23 -4 2 -8 -18 -9 -45 0 -27 3
-47 7 -44 3 2 7 -2 7 -10 0 -10 -5 -11 -17 -5 -12 6 -16 4 -17 -11 -1 -10 3
-19 9 -19 5 0 7 -8 4 -17 -4 -9 -1 -20 6 -25 9 -6 6 -7 -8 -3 -18 5 -21 2 -16
-20 3 -17 0 -25 -9 -25 -11 0 -11 -2 1 -10 12 -8 12 -10 -5 -11 -17 -1 -16 -2
5 -9 21 -7 22 -8 5 -9 -17 -1 -17 -3 -5 -11 10 -6 11 -10 3 -10 -7 0 -13 -5
-13 -11 0 -5 4 -8 9 -5 12 8 7 -24 -5 -32 -15 -11 -17 -45 -2 -36 7 4 5 -1 -4
-12 -14 -16 -15 -23 -5 -33 10 -11 8 -11 -9 -3 -16 9 -21 8 -21 -3 0 -8 4 -12
9 -9 4 3 8 -2 8 -11 0 -9 -4 -14 -8 -11 -4 2 -9 -7 -10 -20 -1 -16 2 -23 9
-18 6 3 3 -5 -6 -20 -10 -14 -14 -26 -10 -26 4 0 0 -12 -10 -26 -9 -15 -12
-23 -6 -20 14 9 10 -36 -3 -46 -13 -9 -17 -40 -4 -32 6 4 8 2 4 -4 -3 -5 0
-13 6 -16 7 -3 3 -3 -9 0 -17 4 -21 2 -17 -9 3 -8 1 -18 -5 -22 -14 -8 -14
-25 -1 -25 5 0 9 5 7 11 -1 6 5 14 13 16 13 4 13 3 0 -6 -13 -10 -13 -11 0
-11 9 -1 5 -6 -10 -15 -14 -8 -19 -14 -12 -15 7 0 10 -5 7 -10 -4 -6 -11 -7
-17 -4 -6 4 -8 2 -4 -4 3 -5 0 -13 -6 -16 -7 -3 -6 -4 4 -3 9 1 17 -2 17 -8 0
-5 -8 -8 -17 -7 -13 3 -14 1 -3 -11 8 -10 9 -17 2 -22 -20 -12 -32 -43 -19
-51 7 -5 8 -3 3 6 -6 9 -4 11 4 5 9 -5 9 -11 3 -17 -6 -6 -8 -16 -6 -23 3 -7
-2 -15 -11 -19 -11 -4 -14 -2 -8 7 13 20 12 34 -3 34 -9 0 -11 -4 -4 -12 6 -7
6 -15 -1 -22 -14 -14 -2 -36 14 -27 7 3 0 -6 -15 -20 -16 -14 -23 -28 -18 -31
6 -3 10 -1 10 4 0 6 5 11 11 11 8 0 7 -5 -2 -16 -10 -12 -10 -17 0 -23 10 -6
9 -10 -4 -14 -9 -4 -13 -3 -10 3 3 6 1 10 -4 10 -6 0 -11 -6 -11 -14 0 -8 -6
-17 -12 -20 -7 -3 -2 -3 12 0 22 4 23 4 8 -8 -12 -11 -14 -18 -6 -33 9 -17 8
-18 -3 -7 -7 6 -18 12 -23 12 -7 0 -8 -3 -1 -8 6 -4 17 -16 25 -26 14 -18 14
-19 -9 -7 -15 8 -21 9 -17 2 4 -6 2 -11 -3 -11 -6 0 -11 -5 -11 -11 0 -8 4 -8
14 0 11 9 16 9 22 0 4 -7 3 -9 -4 -5 -6 3 -13 -3 -17 -14 -4 -11 -12 -18 -18
-14 -7 3 -3 -2 7 -10 11 -9 17 -17 13 -17 -4 -1 -11 -2 -16 -3 -5 0 -13 -5
-18 -10 -4 -5 -3 -6 3 -3 16 9 23 -13 13 -41 -5 -14 -13 -20 -20 -16 -8 4 -9
3 -5 -5 4 -6 11 -9 15 -7 4 3 8 -1 8 -9 0 -8 -4 -12 -9 -9 -4 3 -8 -2 -8 -11
0 -10 5 -13 13 -9 6 4 5 -1 -5 -12 -9 -10 -15 -31 -13 -47 2 -17 -1 -25 -7
-20 -7 4 -9 -2 -5 -16 4 -17 2 -20 -7 -12 -9 8 -13 7 -13 -4 0 -8 5 -15 11
-15 6 0 6 -4 -2 -12 -8 -8 -15 -8 -28 3 -16 13 -16 12 -4 -8 8 -12 20 -19 28
-15 8 3 4 -6 -9 -19 -27 -28 -39 -29 -18 -2 10 13 7 12 -11 -3 -26 -21 -76
-31 -64 -13 3 6 -3 5 -15 -3 -12 -7 -21 -17 -21 -23 0 -5 -5 -2 -11 8 -8 14
-14 16 -25 6 -8 -6 -14 -17 -14 -23 0 -6 7 -2 15 8 8 11 15 15 15 10 0 -22
-23 -34 -39 -21 -12 10 -14 9 -8 -6 4 -11 3 -16 -3 -12 -6 3 -10 0 -10 -7 0
-10 -2 -10 -9 1 -6 9 -11 10 -15 2 -4 -6 -5 -15 -2 -19 4 -7 -9 -11 -51 -14
-8 -1 -9 -7 -2 -20 6 -12 6 -18 -1 -18 -5 0 -10 5 -10 10 0 6 -4 10 -10 10 -5
0 -7 -6 -4 -14 3 -8 0 -17 -5 -21 -6 -3 -8 -11 -5 -17 4 -6 2 -8 -3 -5 -6 4
-16 0 -23 -9 -7 -8 -19 -13 -26 -10 -8 3 -11 0 -7 -9 3 -8 10 -12 17 -8 6 3 0
-7 -15 -23 -14 -16 -31 -37 -38 -47 -12 -15 -12 -17 5 -12 13 4 12 2 -4 -6
-12 -7 -22 -16 -22 -21 0 -5 5 -6 12 -2 7 4 8 3 4 -4 -4 -7 -14 -12 -22 -12
-8 0 -14 -5 -14 -11 0 -6 8 -8 18 -5 10 4 7 -2 -8 -13 -14 -11 -21 -23 -17
-27 4 -4 7 -2 7 4 0 7 4 12 10 12 16 0 -1 -30 -19 -31 -13 0 -13 -2 3 -8 17
-6 17 -9 3 -23 -9 -9 -13 -18 -10 -22 4 -4 7 -15 8 -26 1 -11 -1 -18 -3 -15
-5 4 -32 -41 -32 -52 0 -3 9 -3 20 0 11 3 18 1 14 -4 -3 -5 -13 -9 -22 -9 -15
0 -15 -2 -2 -10 13 -9 13 -10 0 -10 -13 0 -13 -1 0 -11 12 -9 11 -10 -8 -6
-12 3 -20 1 -16 -4 3 -5 12 -9 21 -9 13 0 13 -2 2 -16 -17 -21 -20 -42 -7 -51
7 -4 8 -1 3 8 -5 8 -4 10 0 6 16 -14 14 -41 -2 -60 -16 -17 -16 -17 2 -11 12
5 16 4 12 -3 -4 -6 -1 -14 5 -17 7 -3 2 -3 -12 1 -21 5 -23 4 -13 -9 9 -10 9
-18 2 -25 -8 -8 -8 -13 0 -17 6 -4 11 -12 11 -17 0 -6 -4 -8 -8 -5 -5 3 -9 -1
-9 -8 0 -9 7 -12 16 -8 12 4 14 2 6 -9 -14 -19 -13 -54 2 -54 6 0 15 -3 19 -7
3 -4 -3 -6 -15 -3 -11 2 -21 0 -21 -6 0 -5 4 -9 9 -9 5 0 8 -12 5 -26 -3 -16
-1 -23 6 -19 6 3 7 0 4 -9 -3 -9 -11 -13 -18 -9 -6 4 -5 -1 3 -10 7 -9 18 -14
24 -10 6 3 7 1 3 -6 -4 -6 -11 -9 -16 -6 -4 3 -6 -3 -3 -14 3 -10 0 -22 -6
-25 -7 -5 -6 -15 5 -32 9 -13 13 -24 10 -24 -4 0 -2 -9 4 -19 8 -16 6 -22 -7
-30 -17 -10 -16 -10 2 -11 11 0 16 -4 10 -8 -12 -8 -15 -53 -3 -46 4 3 8 -2 8
-11 0 -9 -4 -14 -9 -11 -12 8 -8 -13 7 -41 11 -20 10 -23 -5 -24 -15 0 -15 -2
3 -9 21 -8 27 -51 10 -78 -4 -7 -3 -12 3 -12 6 0 8 -7 5 -15 -4 -8 -2 -15 3
-15 5 0 7 -19 5 -41 -3 -27 -1 -39 6 -35 6 3 9 -1 7 -11 -1 -10 2 -24 8 -31 7
-9 6 -11 -7 -6 -9 3 -16 2 -16 -4 0 -5 7 -13 16 -16 9 -4 14 -13 10 -21 -3 -8
0 -15 6 -15 7 0 3 -7 -8 -15 -16 -13 -16 -14 -1 -9 17 6 24 -10 8 -20 -17 -11
-5 -41 15 -38 15 3 17 1 7 -9 -7 -7 -13 -18 -13 -23 0 -6 5 -4 10 4 9 13 10
13 10 0 0 -9 -6 -22 -12 -29 -11 -10 -8 -16 11 -32 14 -11 18 -19 10 -19 -8
-1 -3 -7 10 -14 17 -10 20 -15 10 -18 -11 -4 -10 -10 6 -28 11 -13 15 -20 8
-17 -7 5 -9 0 -6 -13 3 -11 13 -20 22 -20 14 0 14 -2 1 -10 -13 -8 -13 -10 2
-10 11 0 16 -6 13 -20 -3 -13 2 -20 12 -20 13 0 13 -3 3 -15 -7 -9 -10 -18 -6
-22 3 -3 6 -1 6 6 0 7 5 9 10 6 6 -4 8 -11 5 -16 -3 -5 2 -6 11 -2 12 4 15 3
10 -5 -6 -10 4 -16 25 -14 3 1 6 -6 6 -13 0 -11 -4 -12 -13 -4 -8 7 -14 7 -19
-1 -4 -6 -1 -9 7 -8 7 2 12 -2 11 -9 -2 -7 4 -10 12 -7 10 4 15 0 15 -11 0 -9
4 -14 9 -11 5 3 14 -1 21 -9 11 -13 10 -14 -6 -8 -16 6 -17 5 -4 -9 8 -9 18
-14 23 -11 4 2 7 -1 7 -7 0 -6 5 -8 12 -4 8 5 9 2 5 -10 -4 -9 -3 -15 2 -11 6
3 14 -1 18 -10 5 -8 19 -16 33 -18 13 -2 26 -12 30 -22 4 -10 14 -19 23 -21
10 -1 15 2 12 7 -4 5 1 6 9 3 9 -3 16 -10 16 -15 0 -5 7 -9 16 -9 8 0 12 -4 9
-10 -3 -5 -1 -10 6 -10 8 0 7 -5 -2 -17 -12 -14 -12 -16 0 -9 9 6 12 5 9 -5
-3 -8 2 -23 11 -33 16 -19 15 -19 -14 0 -26 16 -28 17 -16 1 12 -15 11 -17 -5
-18 -18 0 -18 -1 1 -9 14 -6 16 -9 5 -10 -8 -2 -19 -2 -25 -1 -5 1 -1 -6 9
-14 11 -8 14 -15 8 -15 -7 0 -12 -15 -12 -37 0 -28 -3 -34 -10 -23 -8 13 -10
12 -10 -2 0 -10 6 -18 13 -19 6 0 -1 -5 -16 -11 -26 -9 -27 -11 -10 -24 17
-13 17 -13 1 -14 -10 0 -18 -5 -18 -11 0 -5 5 -7 12 -3 8 5 9 2 5 -10 -4 -10
-7 -20 -7 -22 0 -3 -4 -2 -10 1 -5 3 -10 1 -10 -4 0 -6 5 -11 11 -11 6 0 1 -9
-12 -20 -13 -11 -18 -19 -10 -18 7 2 15 -5 16 -15 3 -15 1 -16 -11 -6 -12 10
-15 10 -12 -2 2 -8 7 -17 11 -20 5 -3 2 -13 -7 -21 -8 -9 -12 -18 -9 -22 3 -3
0 -13 -8 -23 -8 -9 -9 -14 -2 -10 6 4 15 2 19 -4 4 -8 3 -9 -4 -5 -7 4 -12 3
-12 -3 0 -6 -8 -8 -17 -5 -15 5 -16 4 -3 -5 8 -6 12 -11 8 -11 -4 0 -3 -11 2
-25 7 -19 6 -23 -4 -19 -9 4 -14 -3 -13 -21 0 -22 2 -24 16 -13 11 9 10 5 -3
-9 -10 -13 -23 -20 -28 -17 -5 4 -2 -8 7 -26 l16 -31 -23 12 c-19 9 -21 9 -11
-2 10 -10 9 -17 -5 -33 -12 -14 -12 -17 -2 -9 14 11 16 6 15 -37 0 -26 -3 -46
-8 -43 -4 2 -5 8 -2 13 3 5 1 11 -4 15 -6 3 -8 -6 -5 -21 3 -14 1 -23 -5 -20
-5 4 -7 -3 -3 -16 3 -13 1 -19 -5 -15 -8 5 -7 -1 0 -17 7 -13 16 -22 22 -19 5
4 -1 -6 -15 -21 -14 -16 -20 -30 -15 -34 6 -4 11 -13 13 -21 3 -12 1 -12 -14
0 -16 13 -16 12 -6 -8 14 -26 15 -36 3 -28 -6 3 -8 -4 -6 -17 3 -12 -1 -26 -8
-30 -9 -6 -9 -8 1 -8 6 0 12 -5 12 -11 0 -5 -4 -8 -9 -5 -5 4 -8 -2 -7 -11 2
-9 8 -19 14 -21 8 -2 7 -8 -3 -19 -18 -18 -20 -37 -2 -28 6 4 5 0 -4 -7 -12
-10 -14 -20 -8 -38 8 -23 8 -23 -5 -7 -13 17 -14 16 -12 -7 0 -13 5 -22 10
-18 5 3 7 -2 3 -10 -3 -9 0 -21 6 -28 10 -10 8 -10 -10 -1 -18 9 -20 8 -16 -9
3 -11 10 -17 17 -13 6 4 5 0 -2 -9 -10 -13 -10 -17 0 -22 7 -3 2 -4 -12 -2
l-25 5 25 -21 c16 -13 19 -19 8 -15 -12 4 -18 1 -18 -9 0 -8 5 -12 10 -9 6 3
10 2 10 -3 0 -5 -10 -14 -22 -21 -13 -6 -15 -9 -6 -7 10 3 20 1 23 -5 4 -5 1
-8 -7 -7 -7 2 -12 -3 -10 -9 1 -7 -2 -13 -6 -13 -5 0 -8 -15 -7 -34 0 -19 -2
-33 -5 -31 -3 1 -11 -3 -18 -11 -7 -8 -8 -14 -2 -14 5 0 10 -5 10 -11 0 -6 -6
-9 -14 -6 -10 4 -12 0 -8 -15 3 -14 1 -19 -6 -14 -6 3 -14 2 -17 -4 -4 -6 -3
-10 2 -9 19 3 23 -2 11 -15 -7 -8 -17 -11 -22 -8 -5 3 -6 0 -2 -6 3 -6 2 -13
-4 -17 -7 -4 -7 -12 0 -26 10 -18 6 -23 -14 -20 -5 1 -6 -7 -3 -19 3 -11 0
-23 -5 -27 -7 -4 -8 -1 -3 7 6 9 4 11 -4 6 -7 -5 -10 -14 -7 -22 3 -9 -1 -14
-12 -14 -15 0 -15 -2 -2 -10 12 -8 10 -10 -10 -11 -14 0 -19 -3 -12 -6 6 -2
12 -9 12 -14 0 -6 -4 -7 -10 -4 -5 3 -10 -1 -10 -10 0 -10 5 -13 12 -9 7 4 8
3 4 -5 -6 -9 -11 -9 -21 -1 -10 8 -15 8 -21 -1 -4 -8 -3 -9 4 -5 18 11 14 -10
-5 -29 -14 -14 -14 -18 -2 -27 10 -7 8 -8 -9 -5 -20 5 -22 3 -10 -11 11 -13
11 -14 -1 -7 -11 6 -13 4 -7 -10 6 -16 4 -16 -10 -4 -16 13 -16 12 -5 -8 10
-19 9 -23 -4 -23 -9 0 -13 5 -10 10 3 6 1 10 -4 10 -16 0 -13 -16 6 -36 16
-16 16 -16 -5 -10 -17 6 -21 4 -16 -8 3 -8 -3 -19 -15 -26 -12 -6 -21 -20 -21
-31 0 -11 -4 -18 -9 -15 -5 3 -11 -1 -14 -9 -4 -8 -1 -13 6 -11 7 1 9 1 4 -1
-4 -3 -5 -9 -2 -14 4 -5 -2 -6 -11 -2 -12 4 -15 3 -10 -5 4 -8 0 -12 -11 -13
-12 0 -13 -2 -5 -6 10 -4 8 -9 -7 -20 -12 -8 -21 -25 -21 -39 0 -13 -5 -24
-11 -24 -5 0 -7 5 -3 12 4 6 3 8 -4 5 -5 -4 -8 -16 -5 -26 3 -10 0 -22 -6 -25
-7 -5 -9 0 -5 11 5 15 4 15 -4 3 -8 -10 -8 -18 -1 -27 8 -9 5 -11 -11 -8 -18
4 -20 2 -9 -11 10 -12 9 -13 -5 -8 -12 4 -16 0 -16 -16 0 -17 -4 -20 -22 -15
-13 4 -18 3 -12 -2 16 -11 -5 -31 -28 -27 -16 2 -16 0 -2 -21 14 -22 14 -23
-6 -18 -14 4 -20 1 -18 -8 2 -7 -3 -13 -11 -14 -8 0 -16 -6 -19 -14 -3 -9 0
-11 8 -6 9 5 11 4 6 -4 -6 -9 -11 -9 -24 1 -12 10 -14 10 -8 1 4 -8 2 -13 -4
-13 -6 0 -9 -4 -6 -8 2 -4 0 -14 -6 -22 -8 -12 -9 -12 -4 2 3 10 1 20 -4 23
-9 6 -15 -9 -11 -29 1 -5 -5 -3 -14 4 -13 11 -15 10 -9 -4 4 -11 -1 -19 -17
-25 -13 -5 -27 -7 -31 -5 -3 2 -4 -6 -1 -18 5 -23 5 -23 -11 -3 -10 11 -14 14
-10 6 5 -11 3 -13 -10 -8 -10 4 -15 3 -11 -3 6 -10 -29 -33 -38 -24 -3 3 -10
-5 -17 -18 -10 -21 -10 -21 3 -5 13 16 15 16 21 2 3 -9 2 -13 -3 -10 -5 3 -12
1 -15 -4 -3 -5 -15 -7 -26 -4 -12 3 -20 0 -20 -6 0 -7 5 -9 12 -5 7 4 8 3 4
-5 -6 -9 -11 -9 -24 1 -14 12 -14 10 -2 -12 10 -21 10 -23 -1 -12 -17 16 -32
16 -23 -1 5 -7 1 -6 -10 2 -16 13 -17 13 -14 -4 1 -10 -3 -20 -11 -23 -9 -3
-11 0 -6 8 5 9 4 11 -3 6 -7 -4 -12 -15 -13 -24 0 -11 -2 -13 -6 -4 -4 9 -8
10 -18 2 -7 -6 -18 -9 -25 -8 -7 2 -14 -5 -15 -14 -3 -16 -1 -16 23 -1 l27 15
-24 -20 c-14 -11 -33 -18 -44 -16 -16 3 -17 1 -5 -13 9 -12 9 -15 0 -9 -7 4
-15 1 -18 -8 -3 -9 -11 -16 -16 -16 -6 0 -5 7 2 15 7 9 10 18 6 22 -3 3 -6 1
-6 -5 0 -7 -7 -12 -16 -12 -8 0 -12 -5 -9 -10 3 -5 -1 -10 -9 -10 -9 0 -16 -4
-16 -10 0 -5 -5 -10 -11 -10 -5 0 -7 6 -3 13 6 9 5 9 -8 0 -8 -7 -19 -9 -23
-5 -5 4 -5 1 -1 -6 4 -7 12 -9 18 -6 7 5 8 2 4 -5 -5 -7 -11 -10 -14 -7 -3 3
-11 1 -19 -6 -11 -9 -12 -7 -7 8 5 18 5 18 -6 1 -6 -9 -9 -21 -6 -26 4 -5 -4
-7 -16 -3 -14 3 -19 1 -14 -6 5 -8 2 -10 -8 -6 -9 3 -13 11 -10 18 3 6 -6 -1
-20 -16 -25 -28 -53 -39 -40 -15 5 9 3 9 -7 -1 -12 -11 -12 -14 1 -22 9 -6 10
-10 3 -10 -6 0 -19 8 -29 17 -16 16 -16 16 -10 -4 4 -13 2 -24 -5 -29 -8 -4
-9 -3 -5 4 4 7 1 12 -8 12 -9 0 -16 -5 -16 -10 0 -6 -6 -10 -13 -9 -20 3 -47
-12 -40 -24 3 -6 1 -7 -6 -3 -6 4 -9 11 -7 15 3 4 -5 7 -17 8 -12 0 -16 -1 -9
-4 21 -8 13 -21 -11 -15 -19 5 -20 3 -9 -10 11 -14 10 -16 -7 -11 -12 3 -18
10 -14 16 3 6 1 7 -6 3 -6 -4 -9 -11 -6 -16 3 -5 1 -11 -5 -15 -5 -3 -10 -2
-10 3 0 5 -7 9 -14 9 -12 0 -13 -5 -4 -21 9 -18 7 -18 -17 4 -16 14 -25 20
-22 14 5 -9 -9 -20 -55 -41 -4 -2 -16 6 -26 18 -19 20 -21 20 -32 2 -9 -14
-10 -14 -6 -1 2 9 -2 24 -10 35 -11 13 -14 14 -12 3 2 -9 -1 -17 -7 -18 -5 -1
-10 2 -10 7 0 5 -4 13 -9 18 -5 5 -6 3 -2 -4 11 -19 -5 -16 -20 5 -13 16 -14
16 -8 0 4 -13 1 -18 -11 -18 -10 0 -13 5 -9 12 4 7 3 8 -5 4 -6 -4 -8 -12 -5
-18 5 -7 1 -9 -9 -5 -9 3 -19 2 -23 -4 -3 -6 -13 -8 -21 -4 -13 5 -14 3 -3
-10 7 -9 9 -15 4 -14 -20 3 -35 -1 -30 -10 3 -5 -2 -15 -12 -22 -15 -13 -16
-12 -3 4 19 24 -6 24 -26 -1 -8 -10 -11 -11 -7 -2 7 13 5 13 -9 1 -9 -7 -14
-17 -11 -22 3 -5 -3 -6 -12 -2 -11 4 -13 8 -6 11 7 2 12 8 12 13 0 5 -9 4 -19
-3 -13 -8 -17 -16 -11 -23 6 -7 -4 -9 -32 -7 -28 3 -39 1 -34 -7 5 -7 -1 -11
-14 -11 -12 0 -18 -4 -15 -10 4 -7 -2 -7 -19 0 -17 6 -27 6 -32 -2 -5 -7 -3
-8 6 -3 9 5 11 4 6 -4 -6 -9 -11 -9 -22 0 -11 9 -15 8 -20 -5 -4 -12 -11 -13
-24 -6 -16 8 -18 6 -15 -17 2 -22 0 -24 -9 -13 -6 8 -17 16 -25 18 -11 2 -12
0 -3 -11 14 -16 6 -28 -14 -20 -8 3 -11 10 -8 17 3 6 -6 -2 -19 -18 -18 -21
-31 -27 -47 -23 -17 4 -19 3 -9 -9 10 -12 9 -13 -6 -8 -14 6 -16 4 -11 -7 4
-8 0 -5 -9 6 -17 19 -17 19 -11 -10 4 -20 4 -25 -3 -16 -6 9 -15 11 -27 6 -11
-5 -27 -9 -36 -10 -32 -4 -33 -6 -14 -20 17 -13 15 -14 -15 -12 -27 2 -36 -3
-46 -23 -7 -14 -13 -21 -13 -17 0 4 -10 2 -23 -5 -29 -16 -39 -17 -56 -4 -12
9 -13 8 -6 -3 6 -11 4 -13 -8 -8 -10 4 -20 0 -25 -10 -6 -10 -17 -14 -31 -10
-18 4 -20 3 -11 -8 10 -12 8 -13 -10 -10 -17 3 -20 1 -15 -12 5 -14 3 -14 -15
2 -18 16 -25 14 -21 -7 0 -5 -4 -8 -10 -8 -5 0 -7 -5 -4 -10 4 -6 1 -9 -7 -8
-7 2 -12 -3 -10 -10 1 -8 -2 -11 -8 -7 -6 3 -8 10 -5 15 10 16 -10 18 -30 3
-17 -13 -17 -15 -2 -9 12 4 16 2 11 -5 -3 -6 -17 -9 -30 -6 -18 3 -22 1 -14
-8 7 -8 5 -12 -8 -12 -9 0 -21 5 -25 11 -5 6 -7 2 -4 -11 3 -13 0 -26 -5 -30
-6 -3 -8 -1 -4 5 3 6 2 13 -4 17 -5 3 -10 -1 -10 -9 0 -8 -5 -18 -12 -22 -7
-4 -8 -3 -4 4 4 7 3 12 -2 12 -5 0 -12 -8 -14 -18 -3 -10 -12 -19 -21 -19 -9
0 -13 6 -10 16 3 12 2 12 -7 -2 -6 -9 -8 -23 -4 -30 5 -8 2 -7 -9 2 -13 10
-17 10 -17 1 0 -10 -3 -10 -15 0 -13 11 -14 10 -8 -6 6 -17 5 -17 -10 -5 -10
8 -20 11 -24 7 -3 -3 -2 -6 4 -6 6 0 14 -7 17 -16 3 -8 2 -12 -4 -9 -20 12
-51 14 -44 3 5 -7 2 -9 -8 -5 -9 3 -24 -3 -34 -14 -10 -11 -24 -17 -32 -14
-12 4 -12 3 -3 -9 10 -12 8 -15 -11 -18 -17 -2 -22 -8 -20 -23 3 -17 2 -18
-10 -5 -7 8 -12 13 -11 11 2 -2 -2 -10 -8 -18 -10 -11 -15 -11 -27 -1 -10 8
-13 9 -9 2 4 -7 0 -15 -9 -18 -10 -4 -14 -12 -10 -23 4 -10 4 -14 0 -11 -4 4
-16 1 -27 -7 -15 -10 -24 -11 -33 -4 -10 8 -12 6 -9 -9 2 -11 -3 -23 -10 -26
-8 -3 -13 0 -11 7 1 7 1 9 -1 4 -3 -4 -9 -5 -13 -2 -5 3 -12 0 -16 -6 -4 -8
-3 -9 4 -5 18 11 14 -10 -5 -25 -10 -8 -14 -9 -10 -2 4 6 3 14 -3 18 -5 3 -11
-1 -11 -9 -3 -33 -4 -36 -14 -33 -5 1 -9 9 -8 17 1 8 -3 3 -9 -12 -13 -30 -46
-47 -57 -29 -4 6 -12 2 -20 -12 -13 -19 -12 -21 1 -10 12 10 15 10 15 -1 0 -9
-8 -13 -24 -10 -14 3 -22 1 -19 -4 2 -4 -4 -9 -15 -9 -21 -2 -49 -26 -49 -42
0 -6 -5 -11 -11 -11 -5 0 -8 4 -4 9 3 5 0 13 -7 17 -7 4 -10 4 -6 -1 12 -13
-11 -34 -30 -28 -15 4 -15 3 -2 -6 13 -10 13 -12 0 -20 -8 -5 -17 -8 -21 -5
-4 2 -10 -3 -13 -12 -3 -8 -10 -12 -16 -9 -6 3 -7 -1 -4 -9 3 -9 11 -13 17 -9
6 3 7 1 3 -6 -6 -9 -11 -9 -24 1 -13 11 -15 10 -9 -4 3 -10 2 -18 -4 -18 -6 0
-7 -4 -4 -10 3 -6 -1 -7 -9 -4 -9 3 -16 1 -16 -6 0 -6 -5 -8 -10 -5 -6 4 -9 1
-8 -7 2 -7 -3 -12 -10 -10 -14 2 -12 -19 3 -31 6 -5 -1 -5 -14 -2 -16 5 -21 4
-17 -4 4 -6 3 -11 -3 -11 -6 0 -10 -114 -11 -325 l0 -325 4851 2 c4303 3 4853
5 4857 18 4 12 2 13 -9 2 -11 -10 -16 -8 -27 10 -8 13 -11 15 -8 6 3 -10 1
-18 -4 -18 -6 0 -10 8 -10 18 0 14 -2 15 -10 2 -8 -13 -10 -12 -10 4 0 15 -3
16 -15 6 -9 -7 -18 -10 -22 -6 -3 3 -1 6 5 6 7 0 12 7 12 17 0 15 -1 15 -18 0
-17 -15 -18 -15 -19 6 -2 18 0 19 8 7 9 -13 10 -13 6 0 -2 9 -15 15 -34 15
-17 -1 -30 4 -30 12 0 6 5 10 11 7 6 -3 3 1 -6 9 -10 8 -14 18 -10 22 4 5 2 5
-5 1 -7 -4 -10 -14 -7 -24 2 -9 -1 -7 -7 5 -7 13 -16 23 -21 23 -5 0 -6 -6 -2
-12 5 -9 3 -9 -9 1 -9 7 -14 17 -11 22 3 5 -2 9 -11 9 -9 0 -13 5 -9 11 5 8 1
8 -14 0 -15 -8 -23 -7 -35 7 -14 16 -17 22 -17 38 0 4 -8 0 -17 -7 -11 -10
-14 -10 -9 -2 7 12 -11 18 -37 14 -5 -1 -5 4 -1 10 5 9 2 10 -9 6 -12 -4 -14
-2 -10 11 6 15 5 16 -12 2 -17 -14 -17 -13 -12 10 4 14 4 20 1 14 -3 -7 -14
-10 -24 -7 -11 3 -17 10 -13 16 4 6 0 8 -10 4 -9 -3 -19 -1 -23 5 -4 7 -10 6
-16 -3 -6 -10 -7 -7 -3 9 5 16 2 22 -9 22 -9 0 -16 5 -16 11 0 5 4 7 10 4 6
-4 7 1 3 11 -4 11 -8 13 -11 6 -10 -30 -82 11 -82 47 0 7 -5 9 -10 6 -6 -4 -7
-11 -4 -17 4 -7 2 -8 -4 -4 -6 4 -9 13 -5 21 4 11 1 13 -11 9 -12 -5 -15 -2
-9 12 5 13 3 15 -8 8 -22 -14 -36 -13 -36 2 0 11 3 11 16 1 14 -11 14 -10 2 6
-11 14 -16 15 -29 5 -9 -7 -13 -8 -10 -3 4 6 0 19 -8 30 -8 10 -14 13 -14 7 0
-7 -5 -12 -11 -12 -5 0 -8 4 -5 9 3 5 -1 12 -10 15 -8 3 -13 2 -10 -2 2 -4 -5
-8 -17 -9 -12 0 -16 1 -9 4 21 8 13 25 -9 18 -15 -5 -19 -4 -15 4 4 6 0 11 -9
11 -10 0 -13 5 -9 12 5 7 3 8 -7 2 -20 -12 -40 -14 -33 -3 3 5 10 6 16 3 6 -4
8 -3 5 3 -4 6 -18 9 -32 8 -26 -3 -51 24 -37 41 4 5 0 3 -9 -3 -12 -10 -18 -9
-31 7 -9 10 -13 22 -10 26 4 4 1 4 -6 -1 -10 -5 -11 -10 -3 -18 6 -6 11 -16
11 -21 0 -6 -7 0 -16 12 -9 13 -20 19 -27 15 -7 -4 -5 2 3 12 9 11 10 16 3 11
-8 -4 -13 -2 -13 5 0 8 -5 7 -16 -2 -15 -12 -16 -11 -9 11 6 20 5 23 -6 13
-18 -18 -29 -16 -29 3 0 14 -3 14 -15 4 -9 -7 -18 -10 -22 -6 -3 3 -1 6 5 6 7
0 12 4 12 9 0 6 -9 8 -21 6 -18 -4 -19 -2 -7 12 12 15 11 15 -8 5 -23 -12 -35
-7 -28 12 3 7 -2 13 -10 13 -8 0 -13 -3 -11 -7 2 -4 -2 -7 -10 -7 -8 0 -13 5
-12 11 1 5 -5 10 -13 11 -9 0 -14 9 -13 20 1 11 0 14 -3 8 -3 -7 -10 -13 -15
-13 -6 0 -7 6 -3 13 5 7 0 6 -11 -3 -17 -14 -18 -13 -12 4 6 16 5 17 -8 6 -13
-11 -14 -10 -9 4 4 12 2 15 -9 10 -8 -3 -18 0 -23 7 -5 8 -3 10 6 4 9 -5 11
-4 6 4 -6 9 -11 9 -24 -1 -12 -10 -14 -10 -8 0 4 6 2 12 -3 12 -6 0 -11 -5
-11 -12 0 -6 -3 -8 -6 -5 -4 4 -1 13 6 22 11 13 10 14 -4 9 -9 -3 -16 -1 -16
5 0 6 -5 11 -11 11 -5 0 -7 -4 -4 -10 3 -6 -1 -7 -9 -4 -9 3 -16 11 -16 16 0
6 -7 8 -14 5 -10 -4 -13 -1 -10 8 4 10 0 12 -14 8 -14 -3 -24 2 -32 17 -7 13
-17 19 -27 16 -11 -4 -13 -2 -10 9 4 8 1 17 -5 21 -7 4 -8 3 -4 -4 5 -8 -1
-12 -15 -12 -19 0 -20 2 -8 17 12 16 11 16 -16 -1 -16 -10 -24 -13 -18 -5 10
10 9 17 -5 33 l-17 21 24 -20 c14 -11 21 -14 16 -6 -4 8 -2 17 6 23 11 8 10 9
-3 4 -10 -3 -18 -1 -18 4 0 6 5 10 11 10 5 0 7 5 3 12 -5 8 -2 9 10 5 9 -4 15
-3 12 2 -8 12 19 33 28 23 4 -4 6 0 4 8 -2 9 3 14 12 12 11 -3 9 2 -5 18 -17
18 -17 20 -2 14 12 -4 17 -2 15 7 -2 8 4 14 13 13 9 -1 16 4 16 11 0 7 -7 11
-16 8 -9 -2 -3 3 12 12 17 10 26 22 23 30 -3 9 0 12 9 8 8 -3 12 -9 9 -14 -3
-5 0 -9 5 -9 14 0 14 17 1 25 -6 4 -5 11 3 19 6 8 16 12 20 9 4 -3 14 1 23 7
11 10 12 16 2 29 -7 9 -9 13 -4 9 12 -10 44 25 34 39 -6 7 -4 14 3 19 7 4 9 3
6 -3 -4 -6 0 -14 9 -17 8 -3 12 -2 9 3 -3 5 0 13 6 16 5 4 8 13 5 21 -3 9 4
16 20 20 18 5 22 10 14 19 -7 8 -4 17 12 31 12 10 18 13 14 7 -4 -7 -2 -13 3
-13 6 0 11 8 11 19 0 10 8 25 18 32 14 11 15 11 5 -1 -7 -8 -13 -18 -13 -24 0
-5 6 -1 14 9 8 11 12 24 8 29 -3 5 2 7 11 3 11 -4 14 -2 10 8 -3 8 -10 12 -16
8 -6 -3 -7 -1 -3 5 4 6 14 8 22 5 14 -5 15 -3 4 18 -13 23 -12 23 5 9 17 -14
18 -13 12 2 -3 10 -3 17 1 17 20 -3 25 2 12 12 -12 8 -12 9 5 7 31 -4 47 10
35 32 -8 15 -6 17 13 13 16 -3 18 -2 9 5 -11 7 -11 10 3 16 9 3 13 11 9 18 -5
8 -2 9 9 5 12 -5 17 -1 17 13 0 11 5 20 11 20 5 0 7 -4 4 -10 -3 -5 -2 -10 3
-10 5 0 10 11 10 25 -1 15 -5 22 -12 18 -6 -3 -7 -2 -3 3 5 5 13 10 18 10 5 1
14 2 20 3 5 0 7 5 4 11 -3 5 -1 10 4 10 6 0 11 -5 11 -12 0 -6 3 -8 6 -5 4 4
2 13 -5 20 -9 11 -7 17 6 28 16 13 17 12 4 -3 -7 -10 -9 -18 -3 -18 5 0 15 14
21 31 6 17 15 28 21 24 5 -3 10 1 10 10 0 8 10 20 23 25 13 5 16 9 7 10 -9 1
-5 5 9 11 15 6 21 14 17 25 -3 8 -2 12 4 9 6 -3 10 -1 10 5 0 6 5 8 11 5 6 -4
9 0 7 11 -2 11 3 19 11 19 13 0 32 34 25 46 -2 3 3 6 10 6 8 0 12 -9 9 -21 -3
-18 -2 -17 7 2 5 13 7 28 4 34 -3 5 2 8 12 6 15 -2 19 3 17 27 0 17 1 24 4 18
2 -7 9 -13 14 -13 6 0 7 5 3 12 -5 7 -2 9 9 5 11 -4 14 -2 10 8 -3 8 -10 12
-16 8 -6 -3 -7 -1 -3 6 4 6 11 9 16 6 5 -3 13 3 19 12 6 10 11 14 11 8 0 -5 7
1 16 13 8 12 20 19 26 16 5 -4 4 4 -3 17 -11 22 -11 23 5 10 15 -12 16 -12 9
5 -6 16 -5 17 9 6 14 -11 16 -10 11 9 -4 15 -3 20 5 15 8 -5 10 -2 6 9 -4 10
-2 15 7 13 9 -2 13 4 11 16 -3 18 -2 18 14 5 16 -13 16 -12 4 11 -12 23 -12
24 3 12 14 -12 16 -10 12 15 -2 15 -2 22 1 16 6 -14 26 -18 22 -5 -2 4 0 7 3
7 4 0 16 8 28 19 15 14 18 23 11 37 -15 27 -12 35 5 13 15 -18 16 -18 13 6 -2
16 2 24 10 22 6 -1 12 2 12 8 0 5 4 10 10 10 5 0 7 -8 3 -17 -3 -10 -3 -15 1
-11 4 3 9 14 11 25 1 10 8 17 15 15 6 -1 9 2 5 8 -3 6 -10 8 -15 5 -5 -3 -11
-1 -14 4 -4 5 4 8 17 7 19 -2 23 1 21 19 -1 18 2 22 17 18 11 -3 19 0 19 6 0
7 -4 10 -9 7 -5 -3 -15 2 -22 12 -13 15 -12 16 4 3 16 -13 21 -9 18 14 0 6 5
3 11 -7 11 -14 14 -13 32 10 11 14 21 31 22 37 0 5 2 16 2 23 1 6 7 12 13 12
8 0 7 -6 -2 -17 -12 -16 -12 -17 2 -6 9 7 20 9 25 5 5 -4 1 3 -9 15 -14 16
-15 23 -6 29 8 4 10 3 5 -4 -4 -7 -2 -10 7 -6 8 3 13 16 11 32 -3 26 -2 26 12
7 15 -19 15 -19 10 8 -4 26 5 37 39 48 6 2 9 9 7 16 -2 7 4 16 13 19 9 4 14
13 10 21 -4 11 -1 13 11 9 12 -4 14 -1 9 13 -3 11 0 23 6 27 8 5 9 3 4 -6 -6
-9 -4 -11 4 -6 7 5 10 14 7 22 -4 11 1 13 19 10 15 -3 23 -1 20 5 -4 5 -10 7
-15 4 -5 -3 -11 -1 -15 5 -3 5 -1 10 6 10 6 0 20 10 30 22 22 25 25 35 6 19
-10 -8 -14 -7 -14 4 0 7 3 14 6 13 28 -3 33 2 20 19 -13 15 -12 15 9 4 22 -12
23 -11 12 9 -7 13 -8 20 -2 16 5 -3 13 1 16 10 9 23 8 26 -7 18 -6 -4 -3 2 7
14 11 12 16 22 11 22 -4 0 -2 6 4 13 6 8 8 17 4 21 -4 4 0 4 10 0 16 -6 16 -7
1 -19 -14 -9 -14 -14 -4 -20 8 -5 11 -4 7 2 -4 6 0 14 9 17 13 5 14 9 4 21
-10 12 -9 15 6 15 16 0 17 2 4 10 -11 7 -12 10 -2 10 9 0 11 7 7 23 -5 17 -4
19 4 7 9 -13 11 -12 12 5 1 11 1 24 0 29 -1 5 5 3 14 -4 14 -11 16 -11 13 1
-2 8 -7 18 -13 22 -6 5 -1 7 12 4 15 -3 20 -1 16 9 -3 8 1 14 8 14 10 1 9 4
-3 11 -20 11 -13 39 11 39 9 0 12 3 6 8 -5 4 -11 13 -13 21 -2 11 0 12 11 2
12 -9 16 -8 20 3 4 9 1 18 -5 22 -7 5 -8 2 -3 -6 6 -9 4 -11 -4 -6 -9 6 -8 13
6 28 10 11 17 23 16 27 -1 3 8 12 20 19 l22 13 -22 -6 c-13 -4 -23 -2 -23 3 0
5 9 12 20 15 14 3 18 10 14 21 -4 11 -2 16 7 14 7 -2 13 6 14 17 0 11 3 25 7
30 4 6 2 17 -4 25 -8 12 -8 11 -3 -5 5 -15 3 -17 -6 -8 -9 9 -8 16 3 32 8 12
17 19 19 16 3 -2 6 6 6 18 2 17 0 19 -7 7 -6 -9 -10 -10 -10 -3 0 6 5 15 10
18 15 9 12 27 -2 20 -7 -4 -2 2 11 13 18 14 21 21 11 27 -9 6 -11 4 -5 -5 5
-9 4 -11 -3 -6 -9 5 -9 13 -2 27 6 11 8 24 5 29 -3 5 0 12 6 16 7 4 9 3 6 -3
-3 -5 0 -10 7 -10 7 0 13 6 13 13 0 7 -4 11 -9 8 -4 -3 -8 0 -8 6 0 6 -5 8
-12 4 -7 -4 -8 -3 -4 5 4 6 11 9 15 7 4 -3 8 1 8 9 0 8 -5 12 -10 8 -5 -3 -6
4 -2 17 5 15 2 26 -6 32 -10 6 -6 7 11 3 14 -3 20 -3 14 2 -5 4 -10 18 -11 31
-2 48 -3 53 -15 46 -7 -4 -8 -3 -4 5 4 6 11 9 16 6 4 -3 7 3 5 12 -2 10 -4 22
-4 26 -1 5 -7 5 -13 2 -7 -4 -4 1 6 9 18 14 15 21 -7 17 -5 -1 -5 3 -2 9 4 6
14 9 22 6 9 -4 11 -2 6 7 -14 22 -12 39 3 33 8 -3 17 1 20 9 4 8 10 12 15 9 5
-3 9 0 9 5 0 6 5 11 11 11 5 0 7 -6 4 -12 -4 -7 0 -4 9 6 8 10 13 23 9 28 -3
6 5 5 17 -2 20 -11 22 -10 16 5 -5 15 -4 16 9 5 12 -10 15 -10 15 4 0 9 5 16
11 16 5 0 7 -5 3 -12 -4 -7 -3 -8 4 -4 7 4 12 14 12 23 0 10 6 13 16 9 12 -5
15 -2 10 10 -6 15 -4 15 11 3 14 -11 15 -12 9 0 -11 17 14 34 30 20 8 -7 11
-5 10 7 0 9 5 19 13 22 9 3 11 0 6 -8 -5 -9 -4 -11 4 -6 6 4 9 12 6 17 -4 5
-1 9 5 9 6 0 8 5 4 12 -5 9 -2 8 9 -1 15 -12 17 -12 12 2 -4 8 -1 18 4 22 6 3
8 11 5 17 -4 7 -2 8 5 4 9 -6 9 -11 1 -21 -8 -9 -8 -15 0 -20 6 -4 10 -3 9 2
-1 4 2 19 6 31 6 18 10 20 16 10 7 -10 9 -9 9 5 0 11 8 26 18 35 10 10 11 13
2 7 -13 -9 -13 -8 -1 8 8 10 20 16 27 13 8 -3 11 0 7 10 -3 7 0 14 6 14 12 0
36 48 32 64 -1 5 6 3 15 -5 10 -8 15 -9 11 -3 -4 7 2 23 13 36 15 20 16 28 7
37 -9 10 -8 11 7 5 13 -5 17 -4 12 4 -4 7 -2 12 3 12 6 0 11 7 11 15 0 8 4 15
10 15 5 0 7 7 3 16 -4 10 2 17 16 21 20 5 20 6 4 19 -17 12 -16 13 5 9 21 -4
22 -2 10 12 -11 14 -11 16 1 8 11 -6 13 -4 7 10 -6 16 -4 16 11 4 13 -11 15
-11 9 -1 -5 9 0 22 15 38 12 13 19 24 15 24 -4 0 -16 -10 -25 -22 -13 -15 -20
-18 -25 -9 -4 6 -4 10 1 9 4 -2 18 7 31 20 24 24 29 38 10 26 -7 -4 -8 -3 -4
4 4 7 15 12 24 12 13 0 13 2 -4 15 -18 14 -18 14 4 10 20 -4 22 -2 11 11 -10
12 -9 13 5 8 18 -7 19 14 1 29 -6 5 0 7 13 4 20 -5 22 -3 10 11 -10 12 -10 14
0 8 7 -4 12 -2 12 4 0 7 7 9 16 6 14 -5 15 -4 5 8 -7 8 -20 12 -29 9 -14 -4
-14 -3 -3 5 8 6 20 8 27 5 6 -2 15 1 20 8 5 8 3 10 -6 4 -8 -5 -11 -3 -8 6 3
8 12 13 22 11 21 -4 21 7 -1 24 -16 12 -16 12 6 7 19 -5 22 -3 16 8 -8 12 -6
12 8 0 15 -12 17 -12 10 4 -5 14 -3 17 9 13 11 -5 14 0 12 18 -1 13 3 27 8 31
6 3 8 1 4 -5 -3 -6 -2 -13 4 -17 5 -3 10 -1 10 5 0 6 4 9 9 6 5 -3 8 61 8 144
0 82 -4 147 -9 144 -4 -3 -6 -10 -3 -15 3 -5 -1 -6 -9 -3 -9 3 -13 11 -10 16
4 6 -3 5 -15 -1 -12 -7 -21 -8 -20 -4 3 20 -2 34 -11 28 -6 -4 -8 -11 -5 -16
10 -15 -2 -10 -16 8 -12 14 -12 16 0 8 10 -5 12 -4 7 4 -6 9 -11 9 -24 -1 -12
-10 -14 -10 -8 0 9 15 -6 16 -20 2 -7 -7 -11 -6 -11 4 0 8 4 13 8 10 4 -2 10
0 13 5 7 10 -13 9 -31 -2 -6 -4 -14 -3 -18 3 -4 6 -10 8 -15 5 -4 -3 -6 5 -3
17 5 23 5 23 -11 3 -11 -14 -15 -15 -14 -5 2 9 -4 14 -14 14 -10 -1 -15 2 -12
7 3 5 -1 9 -8 9 -9 0 -9 3 2 11 12 8 12 9 -5 7 -11 -1 -32 6 -48 16 -22 15
-25 21 -15 33 9 11 8 13 -3 11 -8 -2 -13 3 -11 10 1 8 -2 11 -8 7 -6 -3 -8
-11 -5 -16 4 -5 1 -9 -4 -9 -6 0 -11 8 -11 19 0 10 -8 25 -17 32 -16 13 -17
12 -4 -4 12 -15 12 -17 -3 -11 -9 3 -16 18 -17 33 0 23 -1 24 -9 6 -7 -17 -9
-17 -9 -2 -1 9 -8 17 -17 17 -8 0 -12 5 -9 10 6 9 -14 14 -42 11 -7 -1 -13 3
-13 9 0 6 5 8 10 5 6 -3 10 -1 10 5 0 6 5 8 12 4 6 -4 8 -3 4 4 -3 6 -15 9
-26 7 -10 -2 -25 4 -32 13 -12 15 -11 16 4 4 15 -12 17 -11 15 7 -1 12 -5 21
-9 21 -4 0 -8 4 -8 10 0 5 8 7 18 4 16 -5 16 -5 -1 6 -9 6 -23 8 -30 5 -6 -4
-3 0 7 9 10 8 23 13 29 9 6 -3 7 -1 3 6 -4 6 -11 9 -16 6 -5 -3 -12 0 -16 6
-4 8 -3 9 5 5 9 -6 10 0 5 20 -4 17 -3 25 3 21 5 -3 10 0 10 8 0 8 -4 12 -9 9
-11 -7 -10 3 3 28 8 15 8 19 0 14 -6 -4 -11 -2 -11 4 0 6 -4 9 -8 6 -13 -8 -7
51 7 68 12 14 12 16 -5 10 -19 -7 -19 -7 0 14 11 12 16 22 11 22 -4 0 -1 8 6
17 12 14 12 16 0 8 -11 -6 -13 -3 -9 13 4 13 1 25 -7 30 -11 6 -10 12 6 32 17
21 19 22 10 3 -13 -26 -14 -33 -3 -33 5 0 9 6 10 13 1 6 4 26 7 42 5 23 4 26
-4 15 -6 -8 -11 -10 -11 -4 0 19 12 24 34 12 19 -10 20 -10 6 6 -13 16 -12 20
5 32 17 13 14 19 -8 15 -5 -1 -6 3 -2 9 4 7 12 7 25 0 17 -9 18 -7 10 19 -4
16 -6 32 -2 35 9 10 22 7 22 -5 0 -5 -5 -7 -12 -3 -7 4 -8 3 -4 -5 10 -16 25
-5 25 19 1 11 1 29 2 40 0 12 5 18 12 14 7 -3 3 2 -7 10 -19 16 -19 16 5 16
13 0 20 4 14 8 -15 11 -17 32 -2 32 8 0 11 14 11 40 -2 28 2 40 12 40 8 0 11
6 7 17 -5 13 -2 15 13 10 18 -7 18 -6 2 7 -21 16 -24 30 -5 23 14 -5 15 41 2
64 -6 8 -4 10 5 4 10 -6 12 -4 7 8 -3 9 -2 19 4 22 5 4 9 12 8 18 -3 26 2 38
13 31 7 -4 8 -3 4 5 -4 6 -11 9 -15 6 -10 -5 -9 60 0 70 4 3 5 -6 3 -21 -3
-28 8 -25 12 4 2 9 5 29 8 45 2 15 1 25 -3 22 -5 -2 -7 11 -5 30 1 23 -1 33
-8 29 -7 -4 -8 -2 -4 4 4 6 12 9 19 6 7 -2 13 4 14 16 1 11 -3 20 -8 20 -6 0
-7 -6 -3 -12 5 -9 2 -9 -9 1 -18 14 -22 22 -9 20 28 -5 35 2 16 17 -16 13 -16
15 -2 10 10 -3 17 -2 17 2 -4 22 2 32 14 26 9 -6 9 -5 0 8 -7 8 -9 19 -5 23 4
5 1 5 -6 1 -9 -5 -11 3 -9 33 2 22 0 38 -5 35 -4 -3 -8 2 -8 11 0 9 4 14 9 10
5 -3 12 -1 16 5 6 9 -8 15 -29 11 -5 -1 -4 4 3 12 6 8 10 27 7 41 -3 15 1 32
10 41 14 14 11 19 -9 16 -5 -1 -6 3 -2 8 3 6 13 8 23 5 11 -4 13 -3 5 3 -7 5
-14 24 -18 43 -4 25 -3 31 5 20 5 -8 10 -10 11 -5 0 6 2 20 5 32 3 18 0 21
-14 16 -15 -5 -16 -4 -1 8 9 8 19 22 22 31 6 18 -15 42 -28 30 -5 -4 -5 -1 -1
6 4 7 12 10 17 7 5 -4 9 -2 9 4 0 5 -5 11 -12 13 -7 3 -5 7 6 11 11 5 15 3 10
-5 -4 -7 -3 -8 5 -4 6 4 8 13 4 19 -13 20 -11 34 3 34 11 0 11 -4 2 -16 -9
-12 -7 -11 7 1 19 17 19 18 0 33 -17 12 -17 14 -2 9 9 -3 17 -1 17 5 0 18 -5
26 -13 23 -5 -1 -5 2 -2 8 4 6 13 9 20 7 8 -4 11 6 9 34 -2 28 1 38 9 34 7 -4
4 0 -5 8 -10 8 -15 17 -11 20 3 4 12 2 20 -4 8 -8 13 -8 13 -1 0 6 -5 12 -12
14 -7 3 -9 11 -3 24 17 39 16 62 -2 67 -17 4 -17 5 0 6 9 0 17 6 17 12 0 5 -5
7 -12 3 -7 -5 -8 -3 -2 7 12 19 14 40 4 34 -5 -3 -12 0 -16 6 -5 8 -3 9 6 4 9
-6 10 -2 5 16 l-8 24 19 -20 c11 -12 15 -14 9 -6 -5 8 -9 16 -7 18 7 10 0 23
-10 18 -7 -4 -5 0 4 8 10 8 15 17 11 20 -3 4 0 7 7 7 7 0 10 3 7 6 -4 4 -13 1
-21 -5 -12 -10 -13 -9 -9 9 3 11 10 23 16 27 6 4 7 1 2 -8 -5 -8 -4 -11 0 -6
14 12 12 55 -2 50 -7 -3 -10 -10 -6 -17 3 -6 2 -7 -2 -3 -12 10 -16 39 -5 32
5 -3 12 0 16 6 5 8 3 9 -6 4 -10 -6 -12 -4 -6 11 6 15 5 17 -5 7 -7 -7 -18
-13 -23 -13 -7 0 -7 3 0 8 21 13 22 97 2 87 -7 -4 -5 0 4 8 10 8 15 17 11 21
-4 3 -7 17 -8 31 -1 23 0 23 20 7 18 -16 19 -16 6 0 -7 9 -10 22 -6 28 3 5 -1
13 -9 16 -9 3 -16 10 -16 15 0 4 8 5 17 2 15 -6 16 -5 3 9 -8 9 -17 14 -20 13
-3 -2 -7 5 -7 16 -1 11 2 17 6 15 4 -3 8 1 8 8 0 8 -9 12 -21 10 -12 -3 -15
-2 -8 2 6 3 10 10 6 15 -3 5 1 9 8 9 8 0 6 5 -5 11 -9 6 -15 15 -12 20 4 5 11
7 16 4 5 -3 6 1 3 9 -3 8 -13 18 -23 21 -19 6 -27 60 -11 70 7 4 7 12 0 24 -6
11 -6 22 0 29 7 9 7 9 -2 2 -25 -21 -34 -3 -14 29 7 11 5 13 -10 8 -17 -6 -17
-6 -2 6 15 12 15 14 -1 24 -10 6 -18 18 -18 27 0 8 3 13 7 11 3 -2 6 5 6 15 0
13 -4 16 -12 9 -8 -7 -10 -2 -6 18 3 16 10 31 16 35 8 6 7 8 -1 8 -7 0 -17 -8
-23 -17 -9 -15 -11 -15 -7 -2 3 9 0 22 -6 28 -9 9 -8 11 4 6 10 -4 20 -1 25 6
4 8 3 10 -5 5 -6 -4 -14 0 -17 8 -3 9 -9 14 -13 12 -3 -2 -7 7 -7 20 -2 23 -1
24 11 7 7 -10 17 -15 21 -10 4 4 2 7 -4 7 -7 0 -12 7 -12 15 0 8 -5 15 -11 15
-8 0 -8 5 1 15 15 18 -1 20 -19 3 -10 -11 -11 -10 -6 5 4 9 12 17 19 17 6 0 4
5 -4 10 -8 5 -11 10 -6 10 5 0 -1 8 -12 19 -25 21 -29 33 -8 25 8 -3 17 -1 20
4 3 5 -2 9 -12 8 -12 -1 -17 6 -16 26 0 15 -3 26 -7 25 -4 -1 -19 11 -34 27
-15 16 -20 26 -11 23 9 -4 16 -2 16 3 0 6 -7 10 -15 10 -14 0 -19 12 -16 33 0
4 -4 7 -10 7 -8 0 -7 5 1 15 11 14 10 14 -14 6 l-26 -11 17 27 c10 15 13 24 8
21 -6 -4 -17 -2 -25 3 -13 8 -13 10 0 19 8 5 10 10 5 10 -6 0 -17 -6 -24 -12
-9 -9 -12 -9 -7 -1 3 6 0 14 -6 16 -8 3 -6 6 5 6 14 1 11 8 -16 34 -18 19 -31
40 -29 47 3 8 0 10 -7 5 -15 -9 -11 26 4 38 6 5 4 7 -5 4 -8 -2 -15 -9 -15
-14 0 -6 -3 -14 -7 -18 -3 -4 -5 5 -4 19 2 14 -1 26 -7 26 -6 0 -7 3 -4 6 4 4
-9 21 -28 39 -19 17 -35 38 -35 46 0 12 -2 12 -10 -1 -6 -9 -10 -10 -10 -3 0
7 8 17 18 23 12 8 13 10 2 8 -8 -1 -28 1 -44 5 -27 8 -27 9 -10 22 11 7 16 17
11 21 -4 4 -7 2 -7 -5 0 -7 -5 -9 -10 -6 -6 4 -7 11 -4 17 5 8 1 9 -11 4 -15
-5 -16 -4 -6 8 9 11 8 17 -4 30 -9 9 -21 13 -27 10 -7 -5 -8 -2 -4 5 6 8 2 11
-10 9 -11 -2 -18 2 -16 10 1 6 -6 12 -16 12 -10 0 -23 5 -29 11 -14 14 -5 42
10 32 6 -3 7 -1 3 5 -4 7 -16 12 -27 12 -11 0 -17 5 -14 10 4 6 12 8 18 4 7
-3 1 4 -12 15 -19 17 -21 24 -11 36 10 12 7 13 -14 9 -21 -3 -24 -1 -20 13 5
15 4 15 -4 3 -6 -8 -9 -17 -6 -21 2 -4 -4 -10 -14 -14 -9 -3 -17 -5 -18 -3 0
2 -9 -4 -20 -12 -10 -8 -16 -11 -12 -6 4 5 2 18 -4 30 -7 11 -12 24 -11 27 1
3 -5 6 -13 6 -11 0 -11 -4 3 -19 9 -10 13 -21 10 -25 -4 -3 -7 -1 -7 6 0 7 -5
9 -12 5 -6 -4 -8 -3 -4 4 3 6 2 13 -4 17 -6 4 -8 11 -5 16 4 5 1 9 -4 9 -6 0
-11 5 -11 11 0 5 5 7 10 4 6 -3 10 -1 10 4 0 6 -9 11 -20 11 -11 0 -20 7 -20
16 0 9 -5 12 -12 8 -6 -4 -8 -3 -4 4 3 6 2 14 -4 17 -8 5 -7 11 1 21 9 11 8
14 -7 15 -11 1 -23 0 -29 -1 -5 -1 -7 2 -2 6 4 4 -1 16 -10 27 -10 11 -12 17
-5 13 6 -4 12 -2 12 4 0 6 4 8 10 5 6 -3 7 1 3 10 -5 13 -7 14 -14 3 -8 -11
-10 -11 -18 0 -8 13 -61 25 -59 13 2 -22 -4 -30 -19 -24 -12 5 -14 3 -9 -8 4
-8 1 -6 -7 3 -8 10 -18 14 -23 10 -4 -4 -2 2 6 12 14 18 13 19 -4 13 -16 -6
-17 -5 -6 8 10 12 9 16 -3 21 -9 3 -20 3 -26 0 -5 -4 -13 -1 -17 5 -5 8 -3 9
6 4 9 -5 11 -4 6 4 -6 9 -11 9 -21 1 -10 -8 -15 -8 -21 1 -5 8 -3 9 6 4 9 -6
11 -4 5 5 -6 10 -11 9 -22 -5 -16 -23 -17 -12 -2 18 7 12 8 19 4 15 -4 -4 -17
-3 -28 3 -14 8 -18 8 -13 0 4 -6 2 -11 -3 -11 -6 0 -11 8 -11 18 0 14 -2 15
-10 2 -8 -13 -10 -12 -10 4 0 19 0 19 -22 0 -12 -10 -18 -14 -14 -7 7 13 -27
37 -38 26 -6 -6 -10 13 -7 31 1 5 -5 3 -14 -4 -14 -11 -19 -10 -33 5 -9 10
-11 15 -4 11 6 -4 12 -2 12 5 0 6 -8 9 -19 6 -13 -3 -18 0 -15 8 3 7 0 16 -7
21 -7 4 -10 3 -5 -4 3 -6 2 -14 -4 -17 -6 -4 -10 -3 -9 2 4 22 -3 31 -21 28
-11 -2 -18 0 -15 5 3 6 1 18 -5 27 -10 16 -11 16 -6 -2 6 -19 6 -19 -9 -1 -8
10 -12 23 -9 27 3 5 0 9 -6 9 -7 0 -10 -7 -7 -14 4 -10 1 -13 -8 -9 -8 3 -12
9 -9 14 3 5 -9 9 -26 9 -20 0 -30 5 -28 13 2 6 -2 13 -7 15 -6 1 -10 -2 -10
-7 0 -5 -4 -13 -9 -18 -5 -4 -6 -3 -3 4 4 6 0 19 -9 27 -10 11 -11 16 -3 16 7
0 9 3 6 6 -4 4 -14 1 -24 -7 -15 -12 -16 -12 -10 3 4 12 1 16 -12 13 -14 -2
-17 2 -15 21 1 13 -2 22 -7 18 -5 -3 -7 -10 -4 -15 4 -5 2 -9 -3 -9 -6 0 -13
7 -16 16 -3 9 -12 14 -19 11 -15 -5 -39 18 -29 29 4 4 1 4 -6 0 -9 -5 -9 -13
-1 -29 10 -22 10 -22 -6 -2 -9 11 -19 20 -23 20 -4 1 -17 6 -30 13 -12 7 -28
10 -35 7 -6 -4 -3 1 8 10 19 16 19 16 -6 10 -17 -4 -39 0 -59 10 -18 9 -29 12
-26 7 3 -6 -1 -13 -10 -16 -8 -3 -13 -2 -10 3 3 5 -4 11 -15 14 -13 4 -18 10
-14 17 6 9 2 9 -14 1 -17 -10 -22 -9 -27 3 -3 8 -3 20 1 26 3 5 -1 10 -10 10
-9 0 -13 5 -9 11 4 7 -1 7 -16 -1 -12 -7 -20 -8 -17 -3 2 4 -7 19 -21 33 -13
14 -22 19 -18 13 4 -8 1 -13 -8 -13 -9 0 -15 3 -13 8 1 4 -2 7 -8 7 -5 0 -9
-9 -8 -20 2 -18 1 -18 -9 3 -6 12 -15 22 -20 22 -5 0 -7 -4 -4 -8 2 -4 -4 -8
-14 -8 -11 0 -17 2 -15 4 6 7 -19 30 -27 25 -5 -2 -8 1 -8 7 0 6 -4 9 -8 6 -5
-3 -8 5 -8 17 1 15 -5 22 -19 21 -12 0 -19 -6 -17 -14 3 -11 0 -11 -12 0 -18
14 -22 25 -6 15 6 -3 10 -1 10 6 0 7 -10 9 -24 7 -19 -4 -23 -1 -18 11 4 12 0
11 -18 -4 l-23 -20 11 21 c13 24 7 35 -13 27 -8 -2 -12 -12 -9 -21 3 -9 -1 -7
-7 6 -7 13 -18 21 -25 18 -8 -3 -20 2 -29 10 -8 9 -15 12 -15 7 0 -5 6 -15 13
-22 10 -10 9 -12 -3 -9 -8 2 -20 12 -27 23 -8 13 -12 15 -13 6 0 -11 -4 -10
-16 5 -8 10 -13 14 -10 7 4 -6 1 -15 -5 -19 -7 -4 -9 -3 -6 2 3 6 2 16 -3 24
-7 12 -13 13 -28 4 -14 -9 -22 -8 -37 2 -10 8 -14 14 -9 14 6 0 15 -5 20 -10
8 -8 14 -7 22 3 10 11 4 14 -33 13 -25 -1 -45 -4 -45 -8 0 -5 -7 -8 -15 -8 -8
0 -15 5 -15 11 0 5 4 7 10 4 6 -3 7 1 3 10 -3 10 -8 12 -12 7 -9 -16 -44 -9
-59 11 -11 14 -17 15 -34 6 -17 -9 -20 -9 -15 3 3 8 -1 15 -8 15 -7 0 -11 -7
-8 -16 3 -12 2 -11 -7 2 -6 9 -15 15 -21 12 -5 -4 -9 -1 -9 6 0 8 -4 8 -13 1
-8 -7 -18 -6 -31 4 -11 8 -15 14 -10 14 6 0 15 -4 22 -10 7 -5 6 -3 -2 6 -11
13 -18 14 -36 4 -15 -8 -20 -8 -16 -1 4 6 3 11 -3 11 -5 0 -15 -8 -20 -17 -9
-15 -10 -15 -11 -2 0 8 6 21 13 28 10 11 9 12 -3 5 -8 -5 -24 -10 -34 -11 -11
-2 -27 -10 -36 -18 -15 -13 -17 -13 -17 0 0 8 3 12 7 10 4 -2 7 2 7 10 0 20
-8 18 -31 -8z m79 -7 c-3 -5 -12 -10 -18 -10 -7 0 -6 4 3 10 19 12 23 12 15 0z
m231 -52 c4 -7 3 -8 -4 -4 -7 4 -12 2 -12 -5 0 -7 -3 -10 -6 -6 -6 5 3 27 11
27 2 0 7 -5 11 -12z m-1151 -17 c3 -5 2 -12 -3 -15 -5 -3 -9 1 -9 9 0 17 3 19
12 6z m-605 -65 c0 -3 -4 -8 -10 -11 -5 -3 -10 -1 -10 4 0 6 5 11 10 11 6 0
10 -2 10 -4z m2080 -16 c0 -5 -5 -10 -11 -10 -5 0 -7 5 -4 10 3 6 8 10 11 10
2 0 4 -4 4 -10z m-2539 -107 c11 -15 11 -16 -1 -5 -12 10 -17 8 -27 -10 -12
-21 -13 -21 -11 -3 2 16 15 34 24 35 1 0 8 -8 15 -17z m54 7 c-3 -5 -12 -10
-18 -10 -7 0 -6 4 3 10 19 12 23 12 15 0z m-155 -24 c0 -3 -4 -8 -10 -11 -5
-3 -10 -1 -10 4 0 6 5 11 10 11 6 0 10 -2 10 -4z m-132 -80 c-7 -8 -15 -12
-17 -11 -5 6 10 25 20 25 5 0 4 -6 -3 -14z m-48 -108 c0 -6 -6 -5 -15 2 -8 7
-15 14 -15 16 0 2 7 1 15 -2 8 -4 15 -11 15 -16z m-148 -115 c-6 -2 -9 -10 -6
-15 4 -7 2 -8 -5 -4 -13 9 -5 26 12 25 9 0 8 -2 -1 -6z m4411 -267 c4 -11 1
-13 -10 -9 -11 4 -14 2 -9 -5 4 -7 2 -12 -4 -12 -6 0 -8 -5 -4 -12 4 -7 3 -8
-5 -4 -11 7 -8 18 12 44 12 15 14 15 20 -2z m-4728 -124 c-3 -3 -11 0 -18 7
-9 10 -8 11 6 5 10 -3 15 -9 12 -12z m5005 -96 c0 -2 -8 -10 -17 -17 -16 -13
-17 -12 -4 4 13 16 21 21 21 13z m-3 -58 c-3 -8 -6 -5 -6 6 -1 11 2 17 5 13 3
-3 4 -12 1 -19z m-5150 -73 c0 -8 -4 -12 -9 -9 -5 3 -6 10 -3 15 9 13 12 11
12 -6z m5297 -53 c3 -5 -1 -9 -9 -9 -8 0 -12 4 -9 9 3 4 7 8 9 8 2 0 6 -4 9
-8z m136 -193 c0 -5 -4 -9 -8 -9 -5 0 -9 7 -9 15 0 8 4 12 9 9 4 -3 8 -9 8
-15z m-5577 -74 c-3 -9 -8 -14 -10 -11 -3 3 -2 9 2 15 9 16 15 13 8 -4z m5657
-45 c6 -11 8 -20 6 -20 -3 0 -10 9 -16 20 -6 11 -8 20 -6 20 3 0 10 -9 16 -20z
m-5723 -215 c0 -8 -4 -12 -9 -9 -5 3 -6 10 -3 15 9 13 12 11 12 -6z m5868 -33
c-3 -3 -11 0 -18 7 -9 10 -8 11 6 5 10 -3 15 -9 12 -12z m-5932 -381 c-4 -3
-11 -10 -15 -15 -4 -4 -6 1 -5 12 1 12 6 18 15 15 7 -3 10 -9 5 -12z m6067
-115 c-7 -7 -15 -5 -22 3 -11 10 -10 11 5 5 14 -5 16 -2 11 12 -5 16 -4 16 5
4 6 -9 7 -18 1 -24z m-6160 -376 c0 -5 -5 -10 -11 -10 -5 0 -7 5 -4 10 3 6 8
10 11 10 2 0 4 -4 4 -10z m6215 -20 c3 -5 1 -10 -4 -10 -6 0 -11 5 -11 10 0 6
2 10 4 10 3 0 8 -4 11 -10z m-6223 -17 c-6 -2 -9 -10 -6 -15 4 -7 2 -8 -5 -4
-13 9 -5 26 12 25 9 0 8 -2 -1 -6z m6233 -323 c3 -5 2 -10 -4 -10 -5 0 -13 5
-16 10 -3 6 -2 10 4 10 5 0 13 -4 16 -10z m2 -26 c-3 -3 -12 -4 -19 -1 -8 3
-5 6 6 6 11 1 17 -2 13 -5z m-26 -91 c13 -16 12 -17 -3 -4 -10 7 -18 15 -18
17 0 8 8 3 21 -13z m4 -33 c3 -6 -1 -7 -9 -4 -18 7 -21 14 -7 14 6 0 13 -4 16
-10z m-51 -205 c-4 -8 -11 -15 -16 -15 -6 0 -5 6 2 15 7 8 14 15 16 15 2 0 1
-7 -2 -15z m-36 -390 c-3 -3 -9 2 -12 12 -6 14 -5 15 5 6 7 -7 10 -15 7 -18z
m22 -9 c0 -2 -8 -10 -17 -17 -16 -13 -17 -12 -4 4 13 16 21 21 21 13z m-6770
-162 c0 -8 -19 -13 -24 -6 -3 5 1 9 9 9 8 0 15 -2 15 -3z m6750 -44 c0 -5 -5
-10 -11 -10 -5 0 -7 5 -4 10 3 6 8 10 11 10 2 0 4 -4 4 -10z m-6860 -340 c0
-5 -5 -10 -11 -10 -5 0 -7 5 -4 10 3 6 8 10 11 10 2 0 4 -4 4 -10z m6745 -140
c-3 -5 -12 -10 -18 -10 -7 0 -6 4 3 10 19 12 23 12 15 0z m-6728 -307 c0 -9
-4 -10 -14 -2 -7 6 -13 12 -13 14 0 1 6 2 13 2 8 0 14 -6 14 -14z m13 -193 c0
-5 -2 -10 -4 -10 -3 0 -8 5 -11 10 -3 6 -1 10 4 10 6 0 11 -4 11 -10z m55
-409 c3 -5 2 -12 -3 -15 -5 -3 -9 1 -9 9 0 17 3 19 12 6z m27 -95 c7 4 8 2 4
-5 -9 -13 -26 -5 -25 12 0 9 2 8 6 -1 2 -6 10 -9 15 -6z m6708 -750 c0 -3 -4
-8 -10 -11 -5 -3 -10 -1 -10 4 0 6 5 11 10 11 6 0 10 -2 10 -4z m-6445 -386
c3 -5 1 -10 -4 -10 -6 0 -11 5 -11 10 0 6 2 10 4 10 3 0 8 -4 11 -10z m5871
-606 c0 -15 -4 -20 -15 -16 -11 4 -11 7 -3 10 9 3 10 8 3 16 -8 9 -7 13 2 13
7 0 13 -10 13 -23z m-101 -254 c-3 -5 -12 -10 -18 -10 -7 0 -6 4 3 10 19 12
23 12 15 0z m-5965 -120 c0 -5 -5 -10 -11 -10 -5 0 -7 5 -4 10 3 6 8 10 11 10
2 0 4 -4 4 -10z m-286 -521 c-3 -5 -10 -7 -15 -3 -5 3 -7 10 -3 15 3 5 10 7
15 3 5 -3 7 -10 3 -15z m5841 -29 c-10 -11 -20 -18 -23 -16 -5 6 21 35 32 36
5 0 1 -9 -9 -20z m-173 -205 c0 -5 -5 -10 -11 -11 -8 -2 -7 -1 0 3 8 4 7 8 -2
15 -11 8 -11 9 -1 6 8 -2 14 -8 14 -13z m-6042 -139 c0 -3 -4 -8 -10 -11 -5
-3 -10 -1 -10 4 0 6 5 11 10 11 6 0 10 -2 10 -4z m5880 -50 c0 -2 -6 -9 -14
-15 -11 -9 -16 -9 -22 0 -4 7 -3 9 4 5 6 -3 13 -2 17 4 6 10 15 14 15 6z
m-6384 -248 c4 -7 3 -8 -4 -4 -7 4 -12 2 -12 -5 0 -7 -3 -10 -6 -6 -6 5 3 27
11 27 2 0 7 -5 11 -12z m-603 -128 c-3 -12 -8 -19 -11 -16 -5 6 5 36 12 36 2
0 2 -9 -1 -20z m260 -5 c-3 -9 -8 -14 -10 -11 -3 3 -2 9 2 15 9 16 15 13 8 -4z
m6307 -95 c0 -5 -5 -10 -11 -10 -5 0 -7 5 -4 10 3 6 8 10 11 10 2 0 4 -4 4
-10z m-6893 -32 c-3 -8 -6 -5 -6 6 -1 11 2 17 5 13 3 -3 4 -12 1 -19z m6843
-62 c0 -11 -19 -15 -25 -6 -3 5 1 10 9 10 9 0 16 -2 16 -4z m-270 -342 c0 -8
-19 -13 -24 -6 -3 5 1 9 9 9 8 0 15 -2 15 -3z m-7520 -41 c0 -3 -7 -2 -16 1
-12 5 -14 1 -9 -17 5 -19 4 -20 -5 -4 -13 21 -5 38 15 30 8 -3 15 -7 15 -10z
m7365 -133 c-10 -11 -20 -18 -23 -16 -5 6 21 35 32 36 5 0 1 -9 -9 -20z
m-7919 -222 c4 -7 3 -8 -4 -4 -7 4 -12 2 -12 -5 0 -7 -3 -10 -6 -6 -6 5 3 27
11 27 2 0 7 -5 11 -12z m8734 -358 c0 -5 -5 -10 -11 -10 -5 0 -7 5 -4 10 3 6
8 10 11 10 2 0 4 -4 4 -10z"/>
<path d="M6921 10634 c0 -11 3 -14 6 -6 3 7 2 16 -1 19 -3 4 -6 -2 -5 -13z"/>
<path d="M6010 10562 c0 -6 -8 -9 -17 -6 -15 5 -16 4 -3 -5 16 -11 40 3 27 16
-4 3 -7 1 -7 -5z"/>
<path d="M6507 10559 c7 -7 15 -10 18 -7 3 3 -2 9 -12 12 -14 6 -15 5 -6 -5z"/>
<path d="M5817 10517 c-3 -8 1 -14 8 -14 7 0 11 6 8 14 -3 7 -6 13 -8 13 -2 0
-5 -6 -8 -13z"/>
<path d="M8526 10398 c3 -5 10 -6 15 -3 13 9 11 12 -6 12 -8 0 -12 -4 -9 -9z"/>
<path d="M8710 10306 c7 -7 13 -7 20 0 6 6 3 10 -10 10 -13 0 -16 -4 -10 -10z"/>
<path d="M8790 10281 c0 -6 4 -13 10 -16 6 -3 7 1 4 9 -7 18 -14 21 -14 7z"/>
<path d="M5140 10061 c0 -6 -8 -8 -17 -5 -16 5 -16 4 0 -6 13 -8 22 -9 29 -2
6 6 6 12 -1 16 -6 4 -11 3 -11 -3z"/>
<path d="M9235 10010 c-3 -5 -1 -10 4 -10 6 0 11 5 11 10 0 6 -2 10 -4 10 -3
0 -8 -4 -11 -10z"/>
<path d="M9280 9997 c0 -3 12 -12 26 -22 15 -9 23 -12 20 -6 -7 11 -46 35 -46
28z"/>
<path d="M4926 9798 c4 -7 -5 -10 -26 -10 -3 0 -14 -9 -25 -20 -19 -20 -19
-20 22 1 45 22 60 38 38 38 -8 0 -12 -4 -9 -9z"/>
<path d="M9660 9795 c7 -8 17 -15 22 -15 5 0 3 7 -6 15 -8 8 -18 15 -22 15 -3
0 -1 -7 6 -15z"/>
<path d="M9695 9740 c3 -5 8 -10 11 -10 2 0 4 5 4 10 0 6 -5 10 -11 10 -5 0
-7 -4 -4 -10z"/>
<path d="M4795 9640 c-3 -5 -1 -10 5 -10 6 0 8 -5 4 -12 -4 -7 -3 -8 4 -4 6 4
9 13 5 21 -6 18 -10 19 -18 5z"/>
<path d="M9807 9617 c-3 -8 1 -14 8 -14 7 0 11 6 8 14 -3 7 -6 13 -8 13 -2 0
-5 -6 -8 -13z"/>
<path d="M4784 9592 c4 -7 3 -12 -2 -12 -15 0 -22 -29 -9 -36 7 -4 9 -3 4 1
-4 5 0 16 9 26 12 13 12 19 3 25 -8 4 -10 3 -5 -4z"/>
<path d="M9930 9516 c0 -2 7 -7 16 -10 8 -3 12 -2 9 4 -6 10 -25 14 -25 6z"/>
<path d="M10080 9370 c-9 -6 -10 -10 -3 -10 6 0 15 5 18 10 8 12 4 12 -15 0z"/>
<path d="M4499 8977 c6 -8 7 -18 3 -22 -4 -5 -1 -5 6 -1 10 6 10 11 1 22 -6 8
-14 14 -16 14 -3 0 0 -6 6 -13z"/>
<path d="M10510 8520 c-13 -8 -12 -10 3 -10 9 0 17 5 17 10 0 12 -1 12 -20 0z"/>
<path d="M4378 8203 c7 -3 16 -2 19 1 4 3 -2 6 -13 5 -11 0 -14 -3 -6 -6z"/>
<path d="M4360 8166 c0 -8 4 -17 9 -20 5 -4 7 3 4 14 -6 23 -13 26 -13 6z"/>
<path d="M10535 7320 c-3 -5 -1 -10 4 -10 6 0 11 5 11 10 0 6 -2 10 -4 10 -3
0 -8 -4 -11 -10z"/>
<path d="M10500 7086 c0 -2 7 -7 16 -10 8 -3 12 -2 9 4 -6 10 -25 14 -25 6z"/>
<path d="M3761 6828 c-14 -23 -14 -23 8 -4 22 20 25 26 13 26 -4 0 -13 -10
-21 -22z"/>
<path d="M3706 6758 c3 -5 10 -6 15 -3 13 9 11 12 -6 12 -8 0 -12 -4 -9 -9z"/>
<path d="M10490 6741 c0 -6 4 -12 8 -15 5 -3 9 1 9 9 0 8 -4 15 -9 15 -4 0 -8
-4 -8 -9z"/>
<path d="M3621 6511 c-8 -5 -9 -11 -3 -15 5 -3 12 1 16 9 6 17 6 18 -13 6z"/>
<path d="M10425 6349 c-4 -6 -5 -12 -2 -15 2 -3 7 2 10 11 7 17 1 20 -8 4z"/>
<path d="M3596 6282 c-3 -5 1 -9 9 -9 8 0 15 4 15 9 0 4 -4 8 -9 8 -6 0 -12
-4 -15 -8z"/>
<path d="M10270 5840 c-9 -6 -10 -10 -3 -10 6 0 15 5 18 10 8 12 4 12 -15 0z"/>
<path d="M3638 5633 c7 -3 16 -2 19 1 4 3 -2 6 -13 5 -11 0 -14 -3 -6 -6z"/>
<path d="M3644 5609 c-3 -6 -2 -15 3 -20 5 -5 9 -1 9 11 0 23 -2 24 -12 9z"/>
<path d="M10470 5406 c0 -2 7 -7 16 -10 8 -3 12 -2 9 4 -6 10 -25 14 -25 6z"/>
<path d="M10510 5379 c0 -5 5 -7 10 -4 6 3 10 8 10 11 0 2 -4 4 -10 4 -5 0
-10 -5 -10 -11z"/>
<path d="M10610 5321 c0 -6 4 -12 8 -15 5 -3 9 1 9 9 0 8 -4 15 -9 15 -4 0 -8
-4 -8 -9z"/>
<path d="M4025 4749 c-4 -6 -5 -12 -2 -15 2 -3 7 2 10 11 7 17 1 20 -8 4z"/>
<path d="M3930 3820 c0 -5 5 -10 11 -10 5 0 7 5 4 10 -3 6 -8 10 -11 10 -2 0
-4 -4 -4 -10z"/>
<path d="M9925 3661 c-3 -5 -2 -12 3 -15 5 -3 9 1 9 9 0 17 -3 19 -12 6z"/>
<path d="M9825 3320 c-3 -6 1 -7 9 -4 18 7 21 14 7 14 -6 0 -13 -4 -16 -10z"/>
<path d="M9468 2673 c7 -3 16 -2 19 1 4 3 -2 6 -13 5 -11 0 -14 -3 -6 -6z"/>
<path d="M8840 1916 c0 -2 8 -10 18 -17 15 -13 16 -12 3 4 -13 16 -21 21 -21
13z"/>
<path d="M8730 1780 c0 -5 5 -10 11 -10 5 0 7 5 4 10 -3 6 -8 10 -11 10 -2 0
-4 -4 -4 -10z"/>
<path d="M2236 1763 c-6 -14 -5 -15 5 -6 7 7 10 15 7 18 -3 3 -9 -2 -12 -12z"/>
<path d="M1315 1466 c-11 -8 -26 -12 -35 -9 -12 4 -13 3 -1 -5 10 -7 21 -6 38
5 13 8 23 17 23 19 0 7 -5 5 -25 -10z"/>
<path d="M8396 1382 c-3 -5 1 -9 9 -9 8 0 12 4 9 9 -3 4 -7 8 -9 8 -2 0 -6 -4
-9 -8z"/>
<path d="M8313 1245 c0 -8 4 -12 9 -9 5 3 6 10 3 15 -9 13 -12 11 -12 -6z"/>
<path d="M533 1084 c4 -4 1 -14 -6 -22 -10 -13 -9 -14 11 -3 27 14 27 17 5 25
-10 4 -14 4 -10 0z"/>
<path d="M370 961 c0 -7 -5 -9 -12 -5 -7 5 -8 3 -3 -5 5 -9 10 -10 18 -2 6 6
8 14 4 18 -4 3 -7 1 -7 -6z"/>
<path d="M8193 890 c-1 -11 2 -20 7 -20 4 0 7 7 6 15 -3 23 -12 26 -13 5z"/>
<path d="M8761 574 c0 -11 3 -14 6 -6 3 7 2 16 -1 19 -3 4 -6 -2 -5 -13z"/>
<path d="M9095 380 c10 -11 25 -19 34 -19 13 1 13 2 -1 6 -10 2 -18 8 -18 13
0 4 -8 11 -17 14 -15 6 -15 4 2 -14z"/>
<path d="M9190 320 c0 -5 5 -10 11 -10 5 0 7 5 4 10 -3 6 -8 10 -11 10 -2 0
-4 -4 -4 -10z"/>
<path d="M9391 208 c-1 -21 15 -32 25 -17 4 7 3 9 -4 5 -6 -3 -13 2 -15 11 -4
16 -5 16 -6 1z"/>
<path d="M9465 160 c-3 -6 1 -7 9 -4 18 7 21 14 7 14 -6 0 -13 -4 -16 -10z"/>
</g>
</svg>
